<?xml version="1.0" encoding="UTF-8"?>
<svg version="1.1" xmlns="http://www.w3.org/2000/svg" width="184" height="184">
<path d="M0 0 C60.72 0 121.44 0 184 0 C184 60.72 184 121.44 184 184 C123.28 184 62.56 184 0 184 C0 123.28 0 62.56 0 0 Z " fill="#000000" transform="translate(0,0)"/>
<path d="M0 0 C3.155625 -0.0825 6.31125 -0.165 9.5625 -0.25 C10.5429126 -0.28641602 11.5233252 -0.32283203 12.53344727 -0.36035156 C18.5908536 -0.43650673 22.09138035 0.38644731 27 4 C29.83336975 6.87972344 30.43132482 8.92980962 30.4375 12.9375 C30.34366466 16.67435454 30.08462801 17.86776873 28 21.125 C27.34 21.74375 26.68 22.3625 26 23 C27.2375 23.86625 27.2375 23.86625 28.5 24.75 C31.32759378 27.56143611 31.4806962 30.09417714 31.625 34 C31.4465069 38.15123955 31.2438089 39.65170157 28.8125 43.125 C24.21607493 46.18928338 20.71576609 47.25821123 15.1875 47.125 C14.21167969 47.10695312 13.23585938 47.08890625 12.23046875 47.0703125 C11.12638672 47.03550781 11.12638672 47.03550781 10 47 C10 44.36 10 41.72 10 39 C15.445 38.505 15.445 38.505 21 38 C21.76522801 34.64541845 21.76522801 34.64541845 22 31 C20.37140176 28.62312689 19.35324555 28.07287428 16.51953125 27.48828125 C15.62621094 27.43027344 14.73289062 27.37226562 13.8125 27.3125 C12.91144531 27.24675781 12.01039062 27.18101563 11.08203125 27.11328125 C10.39496094 27.07589844 9.70789062 27.03851563 9 27 C9 28.32 9 29.64 9 31 C6.03 31 3.06 31 0 31 C0 20.77 0 10.54 0 0 Z " fill="#A6F2F1" transform="translate(54,66)"/>
<path d="M0 0 C3.3 0 6.6 0 10 0 C12.42748896 6.20885749 14.84839389 12.4202256 17.26318359 18.6340332 C18.085913 20.74834708 18.91044986 22.86195854 19.73681641 24.97485352 C20.92303652 28.00875742 22.10277294 31.04511271 23.28125 34.08203125 C23.65310425 35.02899368 24.0249585 35.97595612 24.40808105 36.95161438 C24.74843384 37.83230087 25.08878662 38.71298737 25.43945312 39.62036133 C25.89245789 40.78285149 25.89245789 40.78285149 26.35461426 41.96882629 C27 44 27 44 27 47 C23.7 47 20.4 47 17 47 C16.16260219 44.8765984 15.33019717 42.7512272 14.5 40.625 C13.80390625 38.84996094 13.80390625 38.84996094 13.09375 37.0390625 C12 34 12 34 12 32 C4.08 32 -3.84 32 -12 32 C-11.22657832 27.35946991 -10.50336375 24.41018321 -8.6875 20.25 C-6.67751012 15.57938768 -4.74883737 10.89064861 -2.89453125 6.15625 C-2.02561495 4.06174434 -1.01409758 2.02819515 0 0 Z " fill="#9AE8EA" transform="translate(145,66)"/>
<path d="M0 0 C0.90492187 0.02320312 1.80984375 0.04640625 2.7421875 0.0703125 C3.65226562 0.08835937 4.56234375 0.10640625 5.5 0.125 C6.19867188 0.14820312 6.89734375 0.17140625 7.6171875 0.1953125 C18.49868149 26.66412543 18.49868149 26.66412543 22.3046875 36.6328125 C22.99111328 38.42525391 22.99111328 38.42525391 23.69140625 40.25390625 C24.6171875 43.1953125 24.6171875 43.1953125 24.6171875 47.1953125 C21.3171875 47.1953125 18.0171875 47.1953125 14.6171875 47.1953125 C13.77999367 44.90498939 12.9472946 42.61320293 12.1171875 40.3203125 C11.87871094 39.66933594 11.64023437 39.01835938 11.39453125 38.34765625 C9.6171875 33.421875 9.6171875 33.421875 9.6171875 31.1953125 C1.6971875 31.1953125 -6.2228125 31.1953125 -14.3828125 31.1953125 C-11.24328518 20.73022143 -11.24328518 20.73022143 -8.359375 15.34765625 C-6.7829607 11.87323914 -5.97049495 8.21858308 -5.09375 4.515625 C-4.13076074 1.37268203 -3.34376544 0.27407913 0 0 Z " fill="#ABF7F5" transform="translate(33.3828125,65.8046875)"/>
<path d="M0 0 C3.63 0 7.26 0 11 0 C13.97 5.28 16.94 10.56 20 16 C24.32965506 14.55678165 25.24454011 11.29179837 27.1875 7.4375 C27.73954102 6.37112305 27.73954102 6.37112305 28.30273438 5.28320312 C29.21051032 3.52659773 30.10639707 1.76385756 31 0 C34.3 0 37.6 0 41 0 C39.45987792 5.69295124 36.60357582 10.24343154 33.5 15.1875 C33.00113281 15.99380859 32.50226563 16.80011719 31.98828125 17.63085938 C30.03274711 20.78435479 28.05845764 23.91231354 26 27 C25.6349209 29.22131423 25.6349209 29.22131423 25.5859375 31.66796875 C25.54726562 32.56064453 25.50859375 33.45332031 25.46875 34.37304688 C25.42234375 35.76620117 25.42234375 35.76620117 25.375 37.1875 C25.33632812 38.12787109 25.29765625 39.06824219 25.2578125 40.03710938 C25.16357326 42.35775066 25.08069877 44.67884841 25 47 C22.03 47 19.06 47 16 47 C16.04382813 45.6696875 16.08765625 44.339375 16.1328125 42.96875 C16.22281636 30.71569335 14.43544516 22.87444594 7.15234375 12.95703125 C5 10 5 10 5 8 C4.34 8 3.68 8 3 8 C0 2.25 0 2.25 0 0 Z " fill="#A7F3F0" transform="translate(97,66)"/>
<path d="M0 0 C3.3 0 6.6 0 10 0 C10 15.51 10 31.02 10 47 C6.7 47 3.4 47 0 47 C0 31.49 0 15.98 0 0 Z " fill="#A1EEEE" transform="translate(86,66)"/>
<path d="M0 0 C4.2863443 -0.2521379 7.97109522 -0.35696696 12.0625 1.0625 C14 3 14 3 14.625 6.4375 C14 10 14 10 12 12.4375 C8.00764582 14.51685114 5.45909693 14.30231166 1 14 C1.33 15.32 1.66 16.64 2 18 C3.25103516 18.03867188 3.25103516 18.03867188 4.52734375 18.078125 C11.84327377 18.44685458 17.57174875 19.4287493 24 23 C24.78028239 31.92989844 24.78028239 31.92989844 21.8125 36 C17.26273624 39.23538756 13.76057884 40.25929106 8.1875 40.125 C7.21167969 40.10695312 6.23585938 40.08890625 5.23046875 40.0703125 C4.12638672 40.03550781 4.12638672 40.03550781 3 40 C3 37.36 3 34.72 3 32 C6.63 31.67 10.26 31.34 14 31 C14.76522801 27.64541845 14.76522801 27.64541845 15 24 C13.37140176 21.62312689 12.35324555 21.07287428 9.51953125 20.48828125 C8.62621094 20.43027344 7.73289062 20.37226562 6.8125 20.3125 C5.91144531 20.24675781 5.01039062 20.18101563 4.08203125 20.11328125 C3.39496094 20.07589844 2.70789062 20.03851563 2 20 C2 21.32 2 22.64 2 24 C-0.97 24 -3.94 24 -7 24 C-6.505 22.515 -6.505 22.515 -6 21 C-5.67 21.66 -5.34 22.32 -5 23 C-3.35 23 -1.7 23 0 23 C-0.185625 21.80375 -0.37125 20.6075 -0.5625 19.375 C-1.30987344 12.8873833 -0.59892169 6.47756844 0 0 Z " fill="#B0FBF7" transform="translate(61,73)"/>
<path d="M0 0 C1.43655854 -0.08131463 2.8744483 -0.13933559 4.3125 -0.1875 C5.51326172 -0.23970703 5.51326172 -0.23970703 6.73828125 -0.29296875 C9.57869737 0.0749608 10.17092539 0.84931668 12 3 C12.93022156 4.82116699 12.93022156 4.82116699 13.7175293 6.87304688 C14.16765633 8.02939636 14.16765633 8.02939636 14.62687683 9.20910645 C14.93949966 10.03728882 15.2521225 10.86547119 15.57421875 11.71875 C15.90291458 12.57303589 16.23161041 13.42732178 16.57026672 14.30749512 C17.26236437 16.11156485 17.95052193 17.91715038 18.63500977 19.72412109 C19.6849074 22.49316217 20.74865744 25.2565758 21.81445312 28.01953125 C22.48520301 29.77312101 23.1551523 31.52701725 23.82421875 33.28125 C24.14291428 34.10943237 24.4616098 34.93761475 24.78996277 35.79089355 C25.08059097 36.56179321 25.37121918 37.33269287 25.6706543 38.12695312 C25.92807907 38.80407349 26.18550385 39.48119385 26.45072937 40.17883301 C27 42 27 42 27 45 C23.7 45 20.4 45 17 45 C13.57142857 34.42857143 13.57142857 34.42857143 14 29 C12.68 28.34 11.36 27.68 10 27 C10.66 27 11.32 27 12 27 C12 26.34 12 25.68 12 25 C11.01 24.67 10.02 24.34 9 24 C9.66 23.67 10.32 23.34 11 23 C10.34 22.01 9.68 21.02 9 20 C8.5859375 17.51953125 8.5859375 17.51953125 8.375 14.8125 C8.26285156 13.46091797 8.26285156 13.46091797 8.1484375 12.08203125 C8.07496094 11.05142578 8.07496094 11.05142578 8 10 C7.34 10 6.68 10 6 10 C6 9.34 6 8.68 6 8 C5.01 8 4.02 8 3 8 C2.67 8.66 2.34 9.32 2 10 C2 7.69 2 5.38 2 3 C1.34 2.67 0.68 2.34 0 2 C0 1.34 0 0.68 0 0 Z " fill="#B0FBF8" transform="translate(145,68)"/>
<path d="M0 0 C0.90492187 0.02320312 1.80984375 0.04640625 2.7421875 0.0703125 C3.65226562 0.08835937 4.56234375 0.10640625 5.5 0.125 C6.19867188 0.14820312 6.89734375 0.17140625 7.6171875 0.1953125 C7.2871875 0.8553125 6.9571875 1.5153125 6.6171875 2.1953125 C3.9771875 2.1953125 1.3371875 2.1953125 -1.3828125 2.1953125 C-2.97419335 6.37268724 -3.59559308 9.72692035 -3.3828125 14.1953125 C-2.0628125 13.8653125 -0.7428125 13.5353125 0.6171875 13.1953125 C0.6171875 12.2053125 0.6171875 11.2153125 0.6171875 10.1953125 C1.6071875 10.1953125 2.5971875 10.1953125 3.6171875 10.1953125 C3.6171875 10.8553125 3.6171875 11.5153125 3.6171875 12.1953125 C4.2771875 12.1953125 4.9371875 12.1953125 5.6171875 12.1953125 C5.81634766 13.56816406 5.81634766 13.56816406 6.01953125 14.96875 C6.19613281 16.15726563 6.37273438 17.34578125 6.5546875 18.5703125 C6.72871094 19.75367187 6.90273438 20.93703125 7.08203125 22.15625 C7.45181536 25.10233631 7.45181536 25.10233631 8.6171875 27.1953125 C5.3171875 27.8553125 2.0171875 28.5153125 -1.3828125 29.1953125 C-0.11824219 29.28619141 -0.11824219 29.28619141 1.171875 29.37890625 C2.81542969 29.50458984 2.81542969 29.50458984 4.4921875 29.6328125 C6.12800781 29.75462891 6.12800781 29.75462891 7.796875 29.87890625 C10.6171875 30.1953125 10.6171875 30.1953125 12.6171875 31.1953125 C11.9571875 32.5153125 11.2971875 33.8353125 10.6171875 35.1953125 C10.2871875 33.8753125 9.9571875 32.5553125 9.6171875 31.1953125 C1.6971875 31.1953125 -6.2228125 31.1953125 -14.3828125 31.1953125 C-11.24328518 20.73022143 -11.24328518 20.73022143 -8.359375 15.34765625 C-6.7829607 11.87323914 -5.97049495 8.21858308 -5.09375 4.515625 C-4.13076074 1.37268203 -3.34376544 0.27407913 0 0 Z " fill="#99E7E8" transform="translate(33.3828125,65.8046875)"/>
<path d="M0 0 C3 1 3 1 5 3 C5.99 3 6.98 3 8 3 C8 4.32 8 5.64 8 7 C11.3 6.67 14.6 6.34 18 6 C17.68289062 7.26714844 17.36578125 8.53429687 17.0390625 9.83984375 C15.87487333 15.07869502 15.56344058 20.21157259 15.375 25.5625 C15.33632812 26.47580078 15.29765625 27.38910156 15.2578125 28.33007812 C15.16470178 30.55309656 15.08132077 32.77651906 15 35 C12.03 35 9.06 35 6 35 C5.99742188 33.60007813 5.99484375 32.20015625 5.9921875 30.7578125 C6.06177249 17.43751482 6.06177249 17.43751482 0.1796875 5.83984375 C-1 4 -1 4 -0.6796875 1.75390625 C-0.34324219 0.88572266 -0.34324219 0.88572266 0 0 Z " fill="#ADF9F5" transform="translate(107,78)"/>
<path d="M0 0 C2 3 2 3 2 5 C2.99 5 3.98 5 5 5 C4.59284866 10.15725033 2.62965736 13.89345883 0.27734375 18.38671875 C-1.55488066 22.13521456 -2.81378143 26.00736188 -4 30 C-4.61875 29.525625 -5.2375 29.05125 -5.875 28.5625 C-7.90705546 26.97582559 -7.90705546 26.97582559 -10 26 C-9.67 25.01 -9.34 24.02 -9 23 C-9.99 23 -10.98 23 -12 23 C-12.33 24.32 -12.66 25.64 -13 27 C-13.66 27 -14.32 27 -15 27 C-13.40189533 22.51499656 -11.10425687 18.65986903 -8.625 14.625 C-7.84561321 13.34680567 -7.06696357 12.06816157 -6.2890625 10.7890625 C-5.72106934 9.85562012 -5.72106934 9.85562012 -5.14160156 8.90332031 C-3.37813656 5.96320629 -1.68846548 2.98372667 0 0 Z " fill="#040910" transform="translate(137,68)"/>
<path d="M0 0 C2.48018753 2.48018753 2.32361558 3.38515951 2.375 6.8125 C2.32005518 10.60918722 2.11495655 11.82038039 0 15.125 C-0.66 15.74375 -1.32 16.3625 -2 17 C-0.35 18.65 1.3 20.3 3 22 C2.34 23.32 1.68 24.64 1 26 C1 25.01 1 24.02 1 23 C-1.31 22.67 -3.62 22.34 -6 22 C-6 21.34 -6 20.68 -6 20 C-10.29 20 -14.58 20 -19 20 C-19.33 18.35 -19.66 16.7 -20 15 C-18.95199219 14.81824219 -18.95199219 14.81824219 -17.8828125 14.6328125 C-16.51769531 14.38144531 -16.51769531 14.38144531 -15.125 14.125 C-13.76761719 13.88136719 -13.76761719 13.88136719 -12.3828125 13.6328125 C-9.83494012 13.16955297 -9.83494012 13.16955297 -8 11 C-7.60235737 9.01178687 -7.26224651 7.01055661 -7 5 C-6.01 6.32 -5.02 7.64 -4 9 C-3.319375 8.2575 -3.319375 8.2575 -2.625 7.5 C-1 6 -1 6 1 6 C0.67 4.02 0.34 2.04 0 0 Z " fill="#99E7E8" transform="translate(82,72)"/>
<path d="M0 0 C8.6971831 -0.06161972 8.6971831 -0.06161972 12 1 C12.7425 1.185625 13.485 1.37125 14.25 1.5625 C14.8275 1.706875 15.405 1.85125 16 2 C13 3 13 3 6 3 C6 10.59 6 18.18 6 26 C4.35 26 2.7 26 1 26 C-0.30475618 23.39048764 -0.11301572 21.47298715 -0.09765625 18.5546875 C-0.09443359 17.47832031 -0.09121094 16.40195313 -0.08789062 15.29296875 C-0.07951172 14.16503906 -0.07113281 13.03710938 -0.0625 11.875 C-0.05798828 10.73933594 -0.05347656 9.60367188 -0.04882812 8.43359375 C-0.03701615 5.62234362 -0.02054507 2.8111977 0 0 Z " fill="#B1FDF8" transform="translate(55,70)"/>
<path d="M0 0 C3.63 0 7.26 0 11 0 C13.97 5.28 16.94 10.56 20 16 C20.99 16 21.98 16 23 16 C22.67 17.32 22.34 18.64 22 20 C20.0625 19.625 20.0625 19.625 18 19 C17.67 18.34 17.34 17.68 17 17 C15.35636866 16.27840576 13.68949614 15.60648579 12 15 C12 14.34 12 13.68 12 13 C11.34 13 10.68 13 10 13 C9.34 13.66 8.68 14.32 8 15 C5 10.25 5 10.25 5 8 C4.34 8 3.68 8 3 8 C0 2.25 0 2.25 0 0 Z " fill="#91DEE2" transform="translate(97,66)"/>
<path d="M0 0 C3.82208589 0.06825153 3.82208589 0.06825153 6 1.375 C8.95333656 6.29722759 9.75553269 11.61562359 10.125 17.25 C9.465 18.24 8.805 19.23 8.125 20.25 C8.0425 19.46625 7.96 18.6825 7.875 17.875 C7.39693661 15.10250896 7.39693661 15.10250896 5.0625 13.9375 C4.423125 13.710625 3.78375 13.48375 3.125 13.25 C3.125 12.59 3.125 11.93 3.125 11.25 C2.465 11.25 1.805 11.25 1.125 11.25 C1.125 10.59 1.125 9.93 1.125 9.25 C0.135 9.25 -0.855 9.25 -1.875 9.25 C-1.875 10.24 -1.875 11.23 -1.875 12.25 C-3.195 12.58 -4.515 12.91 -5.875 13.25 C-6.99007674 8.56667771 -6.73476188 5.69276449 -4.875 1.25 C-3.875 0.25 -3.875 0.25 0 0 Z " fill="#B0FBF8" transform="translate(35.875,66.75)"/>
<path d="M0 0 C2.02181185 2.02181185 2.59837801 3.15234968 3.60400391 5.75952148 C4.05424423 6.91598427 4.05424423 6.91598427 4.51358032 8.09580994 C4.9902565 9.34582542 4.9902565 9.34582542 5.4765625 10.62109375 C5.80667328 11.47679459 6.13678406 12.33249542 6.47689819 13.21412659 C7.17374869 15.02463622 7.86790293 16.83618557 8.55957031 18.64868164 C9.62050595 21.42573658 10.69243051 24.19836608 11.765625 26.97070312 C12.44076915 28.72891146 13.11527002 30.48736698 13.7890625 32.24609375 C14.27181137 33.49307289 14.27181137 33.49307289 14.76431274 34.76524353 C15.05816864 35.53937088 15.35202454 36.31349823 15.65478516 37.11108398 C15.91522614 37.79122055 16.17566711 38.47135712 16.44400024 39.17210388 C17 41 17 41 17 44 C13.7 44 10.4 44 7 44 C6.67 42.02 6.34 40.04 6 38 C6.33 38.66 6.66 39.32 7 40 C7.99 40 8.98 40 10 40 C11.53663045 34.41225292 10.22728815 31.07443479 8 26 C7.649375 25.0925 7.29875 24.185 6.9375 23.25 C6.03594971 20.98912761 6.03594971 20.98912761 4.875 18.875 C4 17 4 17 4 14 C3.34 14 2.68 14 2 14 C1.34 14.66 0.68 15.32 0 16 C-0.77010905 11.63604871 -1.04595191 8.30002452 0 4 C0 2.68 0 1.36 0 0 Z " fill="#91DFE5" transform="translate(155,69)"/>
<path d="M0 0 C0.66 0.66 1.32 1.32 2 2 C2.33 1.34 2.66 0.68 3 0 C3.99 0.33 4.98 0.66 6 1 C5.34 1 4.68 1 4 1 C4 16.18 4 31.36 4 47 C2.02 46.67 0.04 46.34 -2 46 C-1.67 45.34 -1.34 44.68 -1 44 C-0.34 44 0.32 44 1 44 C2.63695731 39.08912806 2.63390141 34.11841667 2 29 C0.60424604 26.35001957 -0.74058869 25.03347017 -3 23 C-2.34 22.54625 -1.68 22.0925 -1 21.625 C1.64906407 18.14810341 1.62716387 15.69107155 1.45703125 11.40625 C0.75675337 7.71931691 -1.06282754 6.20287935 -4 4 C-4.763125 3.401875 -5.52625 2.80375 -6.3125 2.1875 C-6.869375 1.795625 -7.42625 1.40375 -8 1 C-6.35 1 -4.7 1 -3 1 C-3 1.66 -3 2.32 -3 3 C-2.01 2.01 -1.02 1.02 0 0 Z " fill="#07111A" transform="translate(82,65)"/>
<path d="M0 0 C0.99 0.33 1.98 0.66 3 1 C3 2.65 3 4.3 3 6 C3.99 6 4.98 6 6 6 C6 6.66 6 7.32 6 8 C6.66 8 7.32 8 8 8 C8.66 11.96 9.32 15.92 10 20 C6.37 20 2.74 20 -1 20 C-1.33 18.02 -1.66 16.04 -2 14 C-1.01 14 -0.02 14 1 14 C0.84402344 13.07316406 0.68804687 12.14632812 0.52734375 11.19140625 C0.33269531 9.99386719 0.13804687 8.79632813 -0.0625 7.5625 C-0.25972656 6.36753906 -0.45695313 5.17257813 -0.66015625 3.94140625 C-0.82837891 2.48541016 -0.82837891 2.48541016 -1 1 C-0.67 0.67 -0.34 0.34 0 0 Z " fill="#ABF9F5" transform="translate(145,70)"/>
<path d="M0 0 C8.625 -0.25 8.625 -0.25 12 2 C12.3125 5.5 12.3125 5.5 12 9 C10 11 10 11 7.6171875 11.1953125 C6.71226563 11.17210938 5.80734375 11.14890625 4.875 11.125 C2.461875 11.063125 2.461875 11.063125 0 11 C0 7.37 0 3.74 0 0 Z " fill="#03060A" transform="translate(63,74)"/>
<path d="M0 0 C1.60717771 2.41076656 2.61542515 4.28099245 3.625 6.9375 C3.88539062 7.60652344 4.14578125 8.27554688 4.4140625 8.96484375 C5 11 5 11 5 15 C1.7 15 -1.6 15 -5 15 C-8 6.375 -8 6.375 -8 3 C-6.576875 3.0928125 -6.576875 3.0928125 -5.125 3.1875 C-3.578125 3.0946875 -3.578125 3.0946875 -2 3 C-1.34 2.01 -0.68 1.02 0 0 Z " fill="#9DEAEC" transform="translate(53,98)"/>
<path d="M0 0 C2.97 0 5.94 0 9 0 C9 0.33 9 0.66 9 1 C6.69 1 4.38 1 2 1 C2 4.63 2 8.26 2 12 C4.97 12 7.94 12 11 12 C9 14 9 14 7.0546875 14.1953125 C5.03645833 14.13020833 3.01822917 14.06510417 1 14 C1.33 15.32 1.66 16.64 2 18 C3.35544922 18.09087891 3.35544922 18.09087891 4.73828125 18.18359375 C5.91777344 18.26738281 7.09726563 18.35117188 8.3125 18.4375 C9.48425781 18.51871094 10.65601563 18.59992188 11.86328125 18.68359375 C15 19 15 19 18 20 C18.33 21.98 18.66 23.96 19 26 C18.34 26 17.68 26 17 26 C17 25.34 17 24.68 17 24 C16.34 24 15.68 24 15 24 C14.57074219 23.51917969 14.14148438 23.03835937 13.69921875 22.54296875 C11.43050694 20.48287412 9.83392087 20.50869616 6.8125 20.3125 C5.91144531 20.24675781 5.01039062 20.18101563 4.08203125 20.11328125 C3.39496094 20.07589844 2.70789062 20.03851563 2 20 C2 21.32 2 22.64 2 24 C-0.97 24 -3.94 24 -7 24 C-6.505 22.515 -6.505 22.515 -6 21 C-5.67 21.66 -5.34 22.32 -5 23 C-3.35 23 -1.7 23 0 23 C-0.185625 21.80375 -0.37125 20.6075 -0.5625 19.375 C-1.30987344 12.8873833 -0.59892169 6.47756844 0 0 Z " fill="#82D2DB" transform="translate(61,73)"/>
<path d="M0 0 C0.66 0.66 1.32 1.32 2 2 C1.625 5.625 1.625 5.625 1 9 C1.66 9.33 2.32 9.66 3 10 C2.01 10.33 1.02 10.66 0 11 C0 10.34 0 9.68 0 9 C-4.29 9 -8.58 9 -13 9 C-13.33 7.35 -13.66 5.7 -14 4 C-13.32453125 3.87882812 -12.6490625 3.75765625 -11.953125 3.6328125 C-10.61507812 3.38144531 -10.61507812 3.38144531 -9.25 3.125 C-8.36828125 2.96257812 -7.4865625 2.80015625 -6.578125 2.6328125 C-4.13052256 2.03203736 -2.19400143 1.22002883 0 0 Z " fill="#B1FCF8" transform="translate(76,83)"/>
<path d="M0 0 C3.3 0 6.6 0 10 0 C8.45196735 5.76315769 5.51721614 10.37456974 2.375 15.375 C1.859375 16.20644531 1.34375 17.03789063 0.8125 17.89453125 C-0.45286795 19.93317962 -1.72378866 21.96812882 -3 24 C-3.66 23.01 -4.32 22.02 -5 21 C-3.875 17.375 -3.875 17.375 -2 14 C0.1875 13.0625 0.1875 13.0625 2 13 C1.67 12.01 1.34 11.02 1 10 C1.66 10 2.32 10 3 10 C3 9.34 3 8.68 3 8 C3.66 8 4.32 8 5 8 C4.67 7.01 4.34 6.02 4 5 C4.66 4.01 5.32 3.02 6 2 C2.37114676 1.84850702 2.37114676 1.84850702 -1 3 C-0.67 2.01 -0.34 1.02 0 0 Z " fill="#9EEAED" transform="translate(128,66)"/>
<path d="M0 0 C1.98 0.66 3.96 1.32 6 2 C6 3.98 6 5.96 6 8 C5.34 8 4.68 8 4 8 C4 8.99 4 9.98 4 11 C3.34 11 2.68 11 2 11 C1.67 11.66 1.34 12.32 1 13 C-0.66666667 13 -2.33333333 13 -4 13 C-3.34 9.7 -2.68 6.4 -2 3 C-1.67 3.66 -1.34 4.32 -1 5 C-0.34 5 0.32 5 1 5 C0.67 3.35 0.34 1.7 0 0 Z " fill="#B2FDFA" transform="translate(79,94)"/>
<path d="M0 0 C3.125 0.1875 3.125 0.1875 6.125 2.1875 C6.8125 5.8125 6.8125 5.8125 7.125 9.1875 C6.465 9.1875 5.805 9.1875 5.125 9.1875 C4.795 10.1775 4.465 11.1675 4.125 12.1875 C3.135 12.5175 2.145 12.8475 1.125 13.1875 C0.9296875 11.13671875 0.734375 9.0859375 0.5390625 7.03515625 C0.40242188 6.42542969 0.26578125 5.81570312 0.125 5.1875 C-0.535 4.8575 -1.195 4.5275 -1.875 4.1875 C-1.875 3.5275 -1.875 2.8675 -1.875 2.1875 C-2.535 1.8575 -3.195 1.5275 -3.875 1.1875 C-2.875 0.1875 -2.875 0.1875 0 0 Z " fill="#AFF9F6" transform="translate(75.875,68.8125)"/>
<path d="M0 0 C2.45254091 0.05255445 3.82219323 0.08850305 6 1.25 C7.78351813 4.42069889 8.36810481 7.69841486 9.125 11.25 C8.135 10.92 7.145 10.59 6.125 10.25 C4.9375 7.6875 4.9375 7.6875 4.125 5.25 C2.84625 5.229375 1.5675 5.20875 0.25 5.1875 C-0.46929687 5.17589844 -1.18859375 5.16429688 -1.9296875 5.15234375 C-3.95685404 5.12350758 -3.95685404 5.12350758 -5.875 6.25 C-4.80889121 0.31025105 -4.80889121 0.31025105 0 0 Z " fill="#ADF9F6" transform="translate(35.875,66.75)"/>
<path d="M0 0 C2 3 2 3 2 5 C2.99 5 3.98 5 5 5 C4.6875 7.875 4.6875 7.875 4 11 C3.01 11.66 2.02 12.32 1 13 C0.67 12.67 0.34 12.34 0 12 C-0.99 12.99 -1.98 13.98 -3 15 C-3.36263859 9.1977825 -2.25684543 5.36000789 0 0 Z " fill="#020203" transform="translate(137,68)"/>
<path d="M0 0 C0.66 0 1.32 0 2 0 C5 6.625 5 6.625 5 10 C2.36 10 -0.28 10 -3 10 C-2.69201674 8.51988629 -2.378482 7.04092675 -2.0625 5.5625 C-1.88847656 4.73878906 -1.71445312 3.91507812 -1.53515625 3.06640625 C-1 1 -1 1 0 0 Z " fill="#040E19" transform="translate(35,79)"/>
<path d="M0 0 C1.37478516 0.01740234 1.37478516 0.01740234 2.77734375 0.03515625 C3.69644531 0.04417969 4.61554688 0.05320312 5.5625 0.0625 C6.27277344 0.07410156 6.98304688 0.08570312 7.71484375 0.09765625 C7.38484375 1.08765625 7.05484375 2.07765625 6.71484375 3.09765625 C3.74484375 2.76765625 0.77484375 2.43765625 -2.28515625 2.09765625 C-2.22328125 3.12890625 -2.16140625 4.16015625 -2.09765625 5.22265625 C-2.2965122 9.33234598 -3.22983428 11.58648121 -5.28515625 15.09765625 C-5.94515625 15.09765625 -6.60515625 15.09765625 -7.28515625 15.09765625 C-7.28515625 16.08765625 -7.28515625 17.07765625 -7.28515625 18.09765625 C-7.94515625 18.09765625 -8.60515625 18.09765625 -9.28515625 18.09765625 C-8.99769531 17.4015625 -8.71023437 16.70546875 -8.4140625 15.98828125 C-6.82903391 11.92973054 -5.52699154 7.78937299 -4.1875 3.64453125 C-2.94078856 0.12567472 -2.94078856 0.12567472 0 0 Z " fill="#7FCCD5" transform="translate(147.28515625,65.90234375)"/>
<path d="M0 0 C1.32 0.66 2.64 1.32 4 2 C4 2.66 4 3.32 4 4 C4.99 4.33 5.98 4.66 7 5 C7 5.99 7 6.98 7 8 C3.7 8 0.4 8 -3 8 C-3.33 6.02 -3.66 4.04 -4 2 C-3.67 2.66 -3.34 3.32 -3 4 C-2.01 4 -1.02 4 0 4 C0 2.68 0 1.36 0 0 Z " fill="#9CEBED" transform="translate(165,105)"/>
<path d="M0 0 C1.79068573 2.6860286 2.66055791 4.6626589 3.625 7.6875 C3.88539063 8.49574219 4.14578125 9.30398437 4.4140625 10.13671875 C4.60742188 10.75160156 4.80078125 11.36648437 5 12 C2.03 12 -0.94 12 -4 12 C-2.68 8.04 -1.36 4.08 0 0 Z " fill="#081222" transform="translate(149,77)"/>
<path d="M0 0 C3.03908421 3.03908421 3.86683221 5.89026841 4.375 10.125 C4 13 4 13 2 14.875 C1.01 15.431875 1.01 15.431875 0 16 C-0.77010905 11.63604871 -1.04595191 8.30002452 0 4 C0 2.68 0 1.36 0 0 Z " fill="#ACFAF6" transform="translate(155,69)"/>
<path d="M0 0 C2.64 0 5.28 0 8 0 C4.25 2 4.25 2 2 2 C2 3.65 2 5.3 2 7 C7.94 6.505 7.94 6.505 14 6 C10.57905758 8.28062828 9.31812778 8.21925007 5.3125 8.125 C3.82169922 8.09792969 3.82169922 8.09792969 2.30078125 8.0703125 C1.54152344 8.04710938 0.78226562 8.02390625 0 8 C0 5.36 0 2.72 0 0 Z " fill="#78C9D4" transform="translate(64,105)"/>
<path d="M0 0 C1.32 0.33 2.64 0.66 4 1 C4 2.65 4 4.3 4 6 C3.01 5.67 2.02 5.34 1 5 C0.67 3.35 0.34 1.7 0 0 Z M-2 3 C-1.67 3.66 -1.34 4.32 -1 5 C-0.34 5 0.32 5 1 5 C0.25 9.75 0.25 9.75 -2 12 C-2.66 11.34 -3.32 10.68 -4 10 C-3.34 7.69 -2.68 5.38 -2 3 Z " fill="#B2FDF9" transform="translate(79,94)"/>
<path d="M0 0 C2.97 0 5.94 0 9 0 C8.125 5.75 8.125 5.75 7 8 C6.34 8 5.68 8 5 8 C5.33 6.68 5.66 5.36 6 4 C4.02 3.34 2.04 2.68 0 2 C0 1.34 0 0.68 0 0 Z " fill="#ADF9F5" transform="translate(98,67)"/>
<path d="M0 0 C0.99 0 1.98 0 3 0 C2.01 2.97 1.02 5.94 0 9 C2.97 9 5.94 9 9 9 C9 9.66 9 10.32 9 11 C5.37 11 1.74 11 -2 11 C-2.33 9.02 -2.66 7.04 -3 5 C-2.01 5 -1.02 5 0 5 C0 3.35 0 1.7 0 0 Z " fill="#75C6D0" transform="translate(146,79)"/>
<path d="M0 0 C1.20628008 2.33214148 2.1654738 4.49642139 3 7 C2 9 2 9 0.0625 9.6875 C-2 10 -2 10 -4 9 C-4 8.01 -4 7.02 -4 6 C-3.34 5.67 -2.68 5.34 -2 5 C-1.27840576 3.35636866 -0.60648579 1.68949614 0 0 Z " fill="#B2FCFA" transform="translate(144,75)"/>
<path d="M0 0 C2.31 0 4.62 0 7 0 C6.01 0.495 6.01 0.495 5 1 C4.34227572 4.02934491 4.34227572 4.02934491 4 7 C3.34 7 2.68 7 2 7 C2 7.66 2 8.32 2 9 C1.34 8.67 0.68 8.34 0 8 C0.33 7.34 0.66 6.68 1 6 C0.34 5.67 -0.32 5.34 -1 5 C-0.67 3.35 -0.34 1.7 0 0 Z " fill="#AEFAF7" transform="translate(129,67)"/>
<path d="M0 0 C0.66 0 1.32 0 2 0 C1.52354792 4.28806873 0.34097516 6.26647487 -3 9 C-3.66 9 -4.32 9 -5 9 C-5.33 7.68 -5.66 6.36 -6 5 C-2.25 3 -2.25 3 0 3 C0 2.01 0 1.02 0 0 Z " fill="#9CEBEB" transform="translate(83,102)"/>
<path d="M0 0 C3.3 0 6.6 0 10 0 C8.90931332 3.77545388 8.0916909 6.47043472 5 9 C4.375 7.1875 4.375 7.1875 4 5 C4.66 4.01 5.32 3.02 6 2 C2.37114676 1.84850702 2.37114676 1.84850702 -1 3 C-0.67 2.01 -0.34 1.02 0 0 Z " fill="#7CCED6" transform="translate(128,66)"/>
<path d="M0 0 C3.63 0 7.26 0 11 0 C8.21040099 2.09219926 6.06775511 3.57568513 3 5 C1.5 3.625 1.5 3.625 0 2 C0 1.34 0 0.68 0 0 Z " fill="#040A1F" transform="translate(161,113)"/>
<path d="M0 0 C0.33 0 0.66 0 1 0 C1 5.94 1 11.88 1 18 C-0.98 17.67 -2.96 17.34 -5 17 C-4.67 16.34 -4.34 15.68 -4 15 C-3.34 15 -2.68 15 -2 15 C-0.9458482 11.83754459 -0.68724328 9.13051782 -0.4375 5.8125 C-0.35371094 4.72582031 -0.26992187 3.63914062 -0.18359375 2.51953125 C-0.12300781 1.68808594 -0.06242187 0.85664062 0 0 Z " fill="#060D14" transform="translate(85,94)"/>
<path d="M0 0 C2.5654594 2.5654594 2.54046087 4.47686668 3 8 C2.01 8.33 1.02 8.66 0 9 C-1.125 7.3125 -1.125 7.3125 -2 5 C-1.125 2.25 -1.125 2.25 0 0 Z " fill="#04111B" transform="translate(43,99)"/>
<path d="M0 0 C1.79378179 2.69067269 2.97313958 5.08578257 4.1875 8.0625 C4.55230469 8.94035156 4.91710937 9.81820312 5.29296875 10.72265625 C6 13 6 13 5 15 C0.55928199 9.67113839 -0.60709557 6.92088947 0 0 Z " fill="#88D6E1" transform="translate(159,79)"/>
<path d="M0 0 C0.33 0.66 0.66 1.32 1 2 C0.67 2.66 0.34 3.32 0 4 C0.99 4.33 1.98 4.66 3 5 C2.01 6.485 2.01 6.485 1 8 C-1.625 8.1875 -1.625 8.1875 -4 8 C-2.25 2.25 -2.25 2.25 0 0 Z " fill="#A0ECEA" transform="translate(128,68)"/>
<path d="M0 0 C2 3 2 3 2 5 C2.99 5 3.98 5 5 5 C4.625 7.9375 4.625 7.9375 4 11 C3.01 11.495 3.01 11.495 2 12 C2 10.35 2 8.7 2 7 C0.68 6.34 -0.64 5.68 -2 5 C-1.34 3.35 -0.68 1.7 0 0 Z " fill="#102F43" transform="translate(137,68)"/>
<path d="M0 0 C1.60875 0.3403125 1.60875 0.3403125 3.25 0.6875 C3.25 1.3475 3.25 2.0075 3.25 2.6875 C-0.38 2.6875 -4.01 2.6875 -7.75 2.6875 C-3.75 -0.3125 -3.75 -0.3125 0 0 Z " fill="#4A4C5D" transform="translate(7.75,181.3125)"/>
<path d="M0 0 C1.35432675 1.31200404 2.68733482 2.64631404 4 4 C4 4.33 4 4.66 4 5 C1.69 5 -0.62 5 -3 5 C-2.625 3.0625 -2.625 3.0625 -2 1 C-1.34 0.67 -0.68 0.34 0 0 Z " fill="#020205" transform="translate(150,84)"/>
<path d="M0 0 C0.66 0 1.32 0 2 0 C2 0.66 2 1.32 2 2 C2.66 2 3.32 2 4 2 C4.33 5.3 4.66 8.6 5 12 C2.65085508 9.65085508 2.26859643 8.04320554 1.375 4.875 C1.11460937 3.96492188 0.85421875 3.05484375 0.5859375 2.1171875 C0.39257812 1.41851562 0.19921875 0.71984375 0 0 Z " fill="#78C7CE" transform="translate(149,76)"/>
<path d="M0 0 C0.66 0 1.32 0 2 0 C1.49701212 4.40114397 -0.08772731 6.71195019 -3 10 C-3.33 8.35 -3.66 6.7 -4 5 C-3.01 5 -2.02 5 -1 5 C-1.33 4.01 -1.66 3.02 -2 2 C-1.34 2 -0.68 2 0 2 C0 1.34 0 0.68 0 0 Z " fill="#8FDDE5" transform="translate(131,74)"/>
<path d="M0 0 C0.99 0 1.98 0 3 0 C3.33 0.66 3.66 1.32 4 2 C4.66 2 5.32 2 6 2 C5.67 2.99 5.34 3.98 5 5 C4.34 5 3.68 5 3 5 C2.67 5.66 2.34 6.32 2 7 C1.01 5.02 0.02 3.04 -1 1 C-0.67 0.67 -0.34 0.34 0 0 Z " fill="#07141F" transform="translate(115,77)"/>
<path d="M0 0 C0.66 0.99 1.32 1.98 2 3 C2.66 3.33 3.32 3.66 4 4 C-0.75 8.875 -0.75 8.875 -3 10 C-2.01 6.7 -1.02 3.4 0 0 Z " fill="#76C3CC" transform="translate(137,84)"/>
<path d="M0 0 C2.6855594 2.6855594 3.06049974 5.37621328 4 9 C2.68 8.67 1.36 8.34 0 8 C0 5.36 0 2.72 0 0 Z " fill="#84D3DC" transform="translate(155,69)"/>
<path d="M0 0 C2.95183101 2.95183101 3.08663988 5.95511947 4 10 C3.01 9.67 2.02 9.34 1 9 C-0.4783226 6.04335481 -0.06032783 3.25770263 0 0 Z " fill="#89D8E2" transform="translate(41,68)"/>
<path d="M0 0 C0.66 1.32 1.32 2.64 2 4 C0.68 5.65 -0.64 7.3 -2 9 C-2.6875 6.1875 -2.6875 6.1875 -3 3 C-1.5625 1.125 -1.5625 1.125 0 0 Z " fill="#A7F2F3" transform="translate(162,98)"/>
<path d="M0 0 C2.125 0.9375 2.125 0.9375 4 2 C4 2.66 4 3.32 4 4 C0.25 5.125 0.25 5.125 -2 4 C-2 3.01 -2 2.02 -2 1 C-1.34 0.67 -0.68 0.34 0 0 Z " fill="#B1FBF8" transform="translate(126,75)"/>
<path d="M0 0 C0.66 0.33 1.32 0.66 2 1 C1.34 2.65 0.68 4.3 0 6 C-0.66 6 -1.32 6 -2 6 C-2 6.99 -2 7.98 -2 9 C-2.66 9 -3.32 9 -4 9 C-2.80100302 5.9168649 -1.52299523 2.93720508 0 0 Z " fill="#90E1E1" transform="translate(142,75)"/>
<path d="M0 0 C0.66 0.66 1.32 1.32 2 2 C1.625 5.625 1.625 5.625 1 9 C0.01 8.34 -0.98 7.68 -2 7 C-1.34 4.69 -0.68 2.38 0 0 Z " fill="#A4EFEE" transform="translate(77,97)"/>
<path d="M0 0 C2.18975773 3.28463659 2.99806563 6.20696275 4 10 C2.68 9.34 1.36 8.68 0 8 C0 5.36 0 2.72 0 0 Z " fill="#7FD0DB" transform="translate(49,88)"/>
</svg>
